<svg width="360" height="360" viewBox="0 0 360 360" fill="none" xmlns="http://www.w3.org/2000/svg">
<rect width="360" height="360" fill="#FF2B2A"/>
<g filter="url(#filter0_d_2495_31775)">
<rect x="58" y="69" width="185.612" height="221.801" rx="18" fill="white"/>
</g>
<rect x="77.8457" y="112.193" width="145.922" height="6.82464" rx="3.41232" fill="#CAD4EC"/>
<rect x="77.6211" y="127.009" width="110.047" height="6.82464" rx="3.41232" fill="#ECF0FC"/>
<rect x="98.0947" y="233.645" width="125.403" height="6.82464" rx="3.41232" fill="#ECF0FC"/>
<g clip-path="url(#clip0_2495_31775)">
<path d="M85.5234 245.453C89.7638 245.453 93.2012 242.015 93.2012 237.775C93.2012 233.534 89.7638 230.097 85.5234 230.097C81.283 230.097 77.8457 233.534 77.8457 237.775C77.8457 242.015 81.283 245.453 85.5234 245.453Z" fill="#FF2B2A"/>
<path d="M82.0488 238.271L84.0343 240.257L88.998 235.293" stroke="white" stroke-width="1.5" stroke-linecap="round" stroke-linejoin="round"/>
</g>
<rect x="98.3193" y="257.531" width="105.064" height="6.82464" rx="3.41232" fill="#CAD4EC"/>
<g clip-path="url(#clip1_2495_31775)">
<path d="M85.5234 268.486C89.7638 268.486 93.2012 265.049 93.2012 260.808C93.2012 256.568 89.7638 253.13 85.5234 253.13C81.283 253.13 77.8457 256.568 77.8457 260.808C77.8457 265.049 81.283 268.486 85.5234 268.486Z" fill="#FF2B2A"/>
<path d="M82.0488 261.304L84.0343 263.29L88.998 258.326" stroke="white" stroke-width="1.5" stroke-linecap="round" stroke-linejoin="round"/>
</g>
<rect x="77.8457" y="145.777" width="109.733" height="68.875" rx="4" fill="#FF2B2A"/>
<path d="M144.374 177.596C146.422 178.742 146.422 181.688 144.374 182.833L125.503 193.388C123.503 194.506 121.039 193.061 121.039 190.769L121.039 169.66C121.039 167.369 123.503 165.923 125.503 167.042L144.374 177.596Z" fill="white"/>
<rect x="191.08" y="145.777" width="32.6865" height="32.6865" rx="4" fill="#FF2B2A"/>
<rect x="191.08" y="181.966" width="32.6865" height="32.6865" rx="4" fill="#FF2B2A"/>
<rect x="98.3203" y="95.4456" width="84.0509" height="6.82464" rx="3.41232" fill="#ECF0FC"/>
<circle cx="85.5234" cy="98.8579" r="7.67772" fill="#FF2B2A"/>
<g filter="url(#filter1_d_2495_31775)">
<rect x="207.29" y="106.536" width="95.2599" height="95.2599" rx="18" fill="white"/>
</g>
<circle cx="255.542" cy="154.231" r="28.7723" fill="#FF2B2A"/>
<path d="M271.983 156.971C271.983 159.131 271.54 161.269 270.68 163.263C269.819 165.258 268.557 167.07 266.967 168.597C265.377 170.124 263.489 171.335 261.411 172.161C259.333 172.987 257.106 173.413 254.857 173.413C252.608 173.413 250.381 172.987 248.303 172.161C246.225 171.335 244.337 170.124 242.747 168.597C241.156 167.07 239.895 165.258 239.034 163.263C238.173 161.268 237.73 159.131 237.73 156.971L271.983 156.971Z" fill="white"/>
<defs>
<filter id="filter0_d_2495_31775" x="46" y="59" width="209.612" height="245.801" filterUnits="userSpaceOnUse" color-interpolation-filters="sRGB">
<feFlood flood-opacity="0" result="BackgroundImageFix"/>
<feColorMatrix in="SourceAlpha" type="matrix" values="0 0 0 0 0 0 0 0 0 0 0 0 0 0 0 0 0 0 127 0" result="hardAlpha"/>
<feOffset dy="2"/>
<feGaussianBlur stdDeviation="6"/>
<feComposite in2="hardAlpha" operator="out"/>
<feColorMatrix type="matrix" values="0 0 0 0 0.374996 0 0 0 0 0.368958 0 0 0 0 0.670833 0 0 0 0.08 0"/>
<feBlend mode="normal" in2="BackgroundImageFix" result="effect1_dropShadow_2495_31775"/>
<feBlend mode="normal" in="SourceGraphic" in2="effect1_dropShadow_2495_31775" result="shape"/>
</filter>
<filter id="filter1_d_2495_31775" x="195.29" y="96.5356" width="119.26" height="119.26" filterUnits="userSpaceOnUse" color-interpolation-filters="sRGB">
<feFlood flood-opacity="0" result="BackgroundImageFix"/>
<feColorMatrix in="SourceAlpha" type="matrix" values="0 0 0 0 0 0 0 0 0 0 0 0 0 0 0 0 0 0 127 0" result="hardAlpha"/>
<feOffset dy="2"/>
<feGaussianBlur stdDeviation="6"/>
<feComposite in2="hardAlpha" operator="out"/>
<feColorMatrix type="matrix" values="0 0 0 0 0.374996 0 0 0 0 0.368958 0 0 0 0 0.670833 0 0 0 0.08 0"/>
<feBlend mode="normal" in2="BackgroundImageFix" result="effect1_dropShadow_2495_31775"/>
<feBlend mode="normal" in="SourceGraphic" in2="effect1_dropShadow_2495_31775" result="shape"/>
</filter>
<clipPath id="clip0_2495_31775">
<rect width="15.3554" height="15.3554" fill="white" transform="translate(77.8457 230.097)"/>
</clipPath>
<clipPath id="clip1_2495_31775">
<rect width="15.3554" height="15.3554" fill="white" transform="translate(77.8457 253.13)"/>
</clipPath>
</defs>
</svg>
