<svg width="144" height="29" viewBox="0 0 144 29" fill="none" xmlns="http://www.w3.org/2000/svg">
<path d="M9.95463 27.6551H4.59438V14.1498H0.942871V9.75278H4.59424V6.62397C4.59424 2.91633 6.20924 0.257233 11.555 0.257233C12.6856 0.257233 14.4607 0.487558 14.4607 0.487558V4.57045H12.5963C10.6966 4.57045 9.95492 5.15446 9.95492 6.76904V9.75278H14.3895L13.9946 14.1498H9.95478L9.95463 27.6551ZM22.2539 9.40139C22.1758 9.40139 22.0954 9.40427 22.0159 9.40628C17.0455 9.40628 14.7715 13.1849 14.7715 18.5489C14.7715 25.3059 17.7213 28.0103 22.0547 28.0103C24.5341 28.0103 26.163 26.9556 27.1531 24.9873V27.6569H32.2515V9.75465H27.1531V12.5078C26.3447 10.7365 24.6702 9.42238 22.2539 9.40139ZM23.5502 13.6317C25.6378 13.6317 26.8908 15.1033 26.8908 17.6066L26.8956 20.1633C26.8956 21.8505 25.8607 23.8244 23.5502 23.8244C19.9982 23.8244 20.093 19.9479 20.093 18.6568C20.093 14.3139 21.9856 13.6317 23.5502 13.6317ZM34.3104 18.7067C34.3104 16.5313 34.2074 9.41304 43.3834 9.41304C47.0667 9.41304 48.6048 10.5967 48.6048 10.5967L47.3686 14.4719C47.3686 14.4719 45.8325 13.617 43.831 13.617C41.2675 13.617 39.6317 15.119 39.6317 17.7617L39.6346 19.6566C39.6346 22.196 41.2129 23.8911 43.8363 23.8911C45.6597 23.8911 47.3403 23.0281 47.3403 23.0281L48.5733 26.8223C48.5733 26.8223 47.167 28.0135 43.4091 28.0135C34.6722 28.0135 34.3106 21.6271 34.3106 18.7067H34.3104ZM78.4984 9.40628C83.4689 9.40628 85.7788 13.1849 85.7788 18.5489C85.7788 25.3059 82.8289 28.0103 78.4954 28.0103C76.016 28.0103 74.1832 26.9558 73.1932 24.9873V27.6569L68.159 27.6549V0.80156L73.504 0.330414V12.2652C74.2754 10.1772 76.8107 9.40628 78.4985 9.40628H78.4984ZM76.9999 13.6317C74.9123 13.6317 73.504 15.1033 73.504 17.6066L73.499 20.1633C73.4959 21.8505 74.4743 23.8244 76.9999 23.8244C80.5519 23.8244 80.4571 19.9479 80.4571 18.6568C80.4571 14.3139 78.5647 13.6317 76.9999 13.6317ZM57.8789 9.42109C52.2414 9.42109 49.2651 12.5276 49.2651 18.0482V19.0739C49.2651 26.2392 53.4447 28.0839 58.4275 28.0839C63.2708 28.0839 65.4631 26.7148 65.4631 26.7148L64.4629 23.0687C64.4629 23.0687 61.8842 24.1776 59.0684 24.1776C56.1493 24.1776 54.8939 23.4257 54.5722 20.5905H65.8904V17.6654C65.8904 11.6769 62.5502 9.42095 57.8787 9.42095L57.8789 9.42109ZM58.0147 13.0721C59.9661 13.0721 61.2306 14.2815 61.1612 17.0864H54.582C54.6961 14.1343 56.0597 13.0722 58.0147 13.0722V13.0721ZM96.4365 9.39651C90.6472 9.39651 87.5995 12.6938 87.5995 18.6028C87.5995 26.7102 92.8532 28.0152 96.4462 28.0152C101.706 28.0152 105.206 25.1531 105.206 18.6764C105.206 11.9353 101.271 9.39651 96.4365 9.39651V9.39651ZM96.3637 13.6463C98.9093 13.6463 99.9181 15.5719 99.9181 17.7637V19.6482C99.9181 22.3034 98.5066 23.8392 96.354 23.8392C94.3409 23.8392 92.926 22.4026 92.926 19.6482V17.7637C92.926 14.8261 94.6096 13.6463 96.3637 13.6463V13.6463ZM115.854 9.39651C110.065 9.39651 107.017 12.6938 107.017 18.6028C107.017 26.7102 112.27 28.0152 115.864 28.0152C121.123 28.0152 124.623 25.1531 124.623 18.6764C124.623 11.9353 120.688 9.39651 115.854 9.39651V9.39651ZM115.781 13.6463C118.327 13.6463 119.335 15.5719 119.335 17.7637V19.6482C119.335 22.3034 117.924 23.8392 115.771 23.8392C113.758 23.8392 112.343 22.4026 112.343 19.6482V17.7637C112.343 14.8261 114.027 13.6463 115.781 13.6463V13.6463ZM126.643 27.6551V0.80156L132.003 0.330414V18.3293L137.322 9.75278H142.983L137.435 18.6356L143.196 27.6551H137.519L132.003 18.8972V27.6551H126.643Z" fill="#0084FF"/>
</svg>
