<svg width="117" height="39" viewBox="0 0 117 39" fill="none" xmlns="http://www.w3.org/2000/svg">
<path d="M14.3133 3.05176e-05H15.3468C18.9347 0.0788627 22.4642 1.53726 24.9991 4.11901C24.0631 5.08471 23.1077 6.01098 22.1912 6.97668C20.7677 5.67595 19.0517 4.67084 17.1798 4.31609C14.4108 3.72485 11.4274 4.25697 9.1069 5.85332C6.57195 7.5285 4.85598 10.3665 4.48549 13.4015C4.07599 16.3971 4.91448 19.5504 6.84494 21.876C8.69741 24.1424 11.5249 25.5614 14.4498 25.6599C17.1798 25.8176 20.0267 24.9701 22.0157 23.0387C23.5756 21.6789 24.2971 19.6095 24.5311 17.5993C21.2942 17.5993 18.0572 17.619 14.8203 17.5993V13.5395H28.4506C29.1525 17.8949 28.1386 22.8022 24.8626 25.9161C22.6787 28.1234 19.6562 29.4241 16.5753 29.6803C13.5918 29.976 10.5109 29.4044 7.85893 27.946C4.68048 26.2314 2.14553 23.3344 0.897551 19.9249C-0.272428 16.7913 -0.291927 13.2438 0.800053 10.0905C1.79454 7.21317 3.7055 4.67084 6.16246 2.89711C8.52191 1.1431 11.3884 0.177403 14.3133 3.05176e-05Z" fill="#4285F4"/>
<path d="M92.5073 1.0249H96.6802V29.1679C95.2958 29.1679 93.8918 29.1876 92.5073 29.1482C92.5268 19.7869 92.5073 10.4059 92.5073 1.0249V1.0249Z" fill="#34A853"/>
<path d="M37.7321 10.7804C40.306 10.2877 43.0945 10.8395 45.2199 12.3965C47.1504 13.776 48.4959 15.9439 48.9054 18.3088C49.4319 21.0482 48.7689 24.0438 47.0139 26.2117C45.1225 28.6358 42.022 29.9365 38.9996 29.7394C36.2306 29.5817 33.5396 28.1825 31.9017 25.8964C30.0492 23.3738 29.6007 19.9052 30.6147 16.949C31.6287 13.776 34.4951 11.3519 37.7321 10.7804V10.7804ZM38.3171 14.5249C37.2641 14.8008 36.2891 15.4118 35.5871 16.2789C33.6956 18.565 33.8126 22.2898 35.8991 24.4183C37.0886 25.6402 38.8826 26.2117 40.54 25.8767C42.0805 25.6008 43.426 24.5562 44.167 23.1767C45.4539 20.8314 45.0835 17.5993 43.114 15.7665C41.8465 14.584 39.994 14.0913 38.3171 14.5249Z" fill="#EA4335"/>
<path d="M58.3998 10.7803C61.3442 10.2087 64.5617 11.0365 66.7651 13.1255C70.3531 16.3774 70.7431 22.4672 67.6816 26.2117C65.8291 28.5767 62.8262 29.8774 59.8622 29.7394C57.0348 29.6606 54.2463 28.2416 52.5694 25.8964C50.6779 23.3146 50.2684 19.7672 51.3409 16.7518C52.4134 13.6774 55.2213 11.3321 58.3998 10.7803V10.7803ZM58.9848 14.5248C57.9318 14.8007 56.9568 15.4117 56.2548 16.2591C54.3828 18.5058 54.4608 22.1715 56.4693 24.3197C57.6588 25.6008 59.5113 26.2314 61.2272 25.8767C62.7482 25.581 64.1132 24.5562 64.8542 23.1767C66.1216 20.8117 65.7511 17.5796 63.7622 15.7467C62.4947 14.5642 60.6422 14.0912 58.9848 14.5248Z" fill="#FBBC05"/>
<path d="M75.9323 11.9234C78.1748 10.5044 81.1582 10.1103 83.5762 11.3322C84.3367 11.6672 84.9607 12.2387 85.5651 12.8103C85.5846 12.2782 85.5651 11.7263 85.5846 11.1745C86.8911 11.1942 88.1976 11.1745 89.5236 11.1942V28.5767C89.5041 31.1978 88.8411 33.9767 86.9691 35.8883C84.9217 37.9971 81.7822 38.6475 78.9548 38.2139C75.9323 37.7606 73.2998 35.5336 72.1299 32.7154C73.2998 32.1438 74.5283 31.6905 75.7373 31.1584C76.4198 32.7745 77.8043 34.154 79.5397 34.4694C81.2752 34.7847 83.2837 34.3511 84.4147 32.8927C85.6236 31.3949 85.6236 29.3453 85.5651 27.5124C84.6682 28.3993 83.6347 29.1876 82.3867 29.4832C79.6762 30.2519 76.6928 29.3059 74.6063 27.4533C72.5004 25.6008 71.2524 22.7431 71.3694 19.9051C71.4279 16.6927 73.2218 13.5986 75.9323 11.9234V11.9234ZM79.9687 14.446C78.7793 14.6431 77.6678 15.3132 76.9073 16.2395C75.0743 18.4468 75.0743 21.9745 76.9268 24.1424C77.9798 25.4234 79.6762 26.1329 81.3142 25.9555C82.8547 25.7978 84.2782 24.8124 85.0387 23.4526C86.3256 21.1468 86.1111 18.0132 84.3757 16.003C83.3032 14.7614 81.5872 14.1504 79.9687 14.446V14.446Z" fill="#4285F4"/>
<path d="M101.688 12.9286C104.028 10.7213 107.636 9.97235 110.639 11.1351C113.486 12.2191 115.299 14.9585 116.216 17.7767C111.984 19.5504 107.772 21.3045 103.541 23.0782C104.126 24.2015 105.023 25.2264 106.232 25.6402C107.928 26.2512 109.956 26.0344 111.38 24.8913C111.945 24.4577 112.394 23.8862 112.823 23.3344C113.895 24.0636 114.968 24.7731 116.04 25.5023C114.519 27.8081 111.965 29.4242 109.215 29.6804C106.173 30.0548 102.936 28.8723 100.967 26.468C97.73 22.684 98.042 16.338 101.688 12.9286V12.9286ZM103.775 16.5745C103.112 17.5402 102.839 18.7227 102.858 19.8855C105.686 18.703 108.513 17.5205 111.341 16.3183C110.873 15.2147 109.742 14.5446 108.591 14.3672C106.739 14.0322 104.808 15.0373 103.775 16.5745V16.5745Z" fill="#EA4335"/>
</svg>
