<svg width="226" height="43" viewBox="0 0 226 43" fill="none" xmlns="http://www.w3.org/2000/svg">
<path d="M25.896 21.9251C27.2728 21.9251 28.636 22.1951 29.908 22.7198C31.18 23.2446 32.3357 24.0137 33.3092 24.9832C34.2828 25.9528 35.055 27.1038 35.5819 28.3706C36.1087 29.6374 36.3799 30.9952 36.3799 32.3663C36.3799 33.7375 36.1087 35.0952 35.5819 36.362C35.055 37.6288 34.2828 38.7799 33.3092 39.7494C32.3357 40.719 31.18 41.4881 29.908 42.0128C28.636 42.5375 27.2728 42.8076 25.896 42.8076L25.896 21.9251Z" fill="#24AD37"/>
<path d="M15.4365 21.9255C14.071 21.9255 12.7187 21.6555 11.4571 21.1307C10.1955 20.606 9.04916 19.8369 8.08356 18.8674C7.11795 17.8978 6.35199 16.7468 5.82941 15.48C5.30683 14.2132 5.03786 12.8554 5.03786 11.4843C5.03786 10.1131 5.30683 8.75534 5.82941 7.48854C6.35199 6.22175 7.11795 5.07071 8.08356 4.10115C9.04916 3.13159 10.1955 2.36249 11.4571 1.83776C12.7188 1.31304 14.071 1.04297 15.4365 1.04297L15.4365 21.9255Z" fill="#FF282B"/>
<path d="M42 21.7871L25.7324 21.7871C20.0151 21.7871 15.3803 17.1523 15.3803 11.435V11.435C15.3803 5.71768 20.0151 1.08288 25.7324 1.08288L42 1.08289L42 21.7871Z" fill="#FFBE17"/>
<path d="M0 21.7871H15.5282C21.3272 21.7871 26.0282 26.4881 26.0282 32.2871V32.2871C26.0282 38.0861 21.3272 42.7871 15.5282 42.7871H0V21.7871Z" fill="#0084FE"/>
<path d="M61.728 33.416C59.5307 33.416 57.6853 32.9253 56.192 31.944C54.6987 30.9627 53.6533 29.64 53.056 27.976L56.576 25.896C57.4507 28.1787 59.2 29.32 61.824 29.32C62.9973 29.32 63.904 29.0427 64.544 28.488C65.184 27.9333 65.504 27.2933 65.504 26.568C65.504 25.8427 65.152 25.256 64.448 24.808C63.7653 24.36 62.5387 23.88 60.768 23.368C59.3813 22.9413 58.208 22.4827 57.248 21.992C56.288 21.48 55.4987 20.7973 54.88 19.944C54.2827 19.0907 53.984 18.0133 53.984 16.712C53.984 15.3893 54.3147 14.2373 54.976 13.256C55.6373 12.2533 56.512 11.496 57.6 10.984C58.7093 10.4507 59.9147 10.184 61.216 10.184C63.0293 10.184 64.5973 10.6213 65.92 11.496C67.264 12.3493 68.2987 13.5547 69.024 15.112L65.44 17.16C64.608 15.2613 63.2 14.312 61.216 14.312C60.32 14.312 59.584 14.5467 59.008 15.016C58.432 15.4853 58.144 16.04 58.144 16.68C58.144 17.1707 58.272 17.5867 58.528 17.928C58.8053 18.2693 59.232 18.5787 59.808 18.856C60.4053 19.1333 61.2693 19.4427 62.4 19.784C63.872 20.2533 65.1093 20.744 66.112 21.256C67.136 21.768 67.9787 22.4827 68.64 23.4C69.3227 24.296 69.664 25.4267 69.664 26.792C69.664 28.136 69.3227 29.3093 68.64 30.312C67.9573 31.3147 67.008 32.0827 65.792 32.616C64.5973 33.1493 63.2427 33.416 61.728 33.416ZM77.4278 27.528C77.4278 28.2533 77.5984 28.7547 77.9398 29.032C78.2811 29.3093 78.8251 29.448 79.5718 29.448C80.0198 29.448 80.5104 29.416 81.0438 29.352V33C80.0411 33.1067 79.2091 33.16 78.5478 33.16C76.8411 33.16 75.5611 32.776 74.7078 32.008C73.8758 31.2187 73.4598 29.8107 73.4598 27.784V20.552H70.4518V17H73.4598V13.064L77.4278 11.72V17H80.9798V20.552H77.4278V27.528ZM94.128 17H98.096V33H94.128V31.656C93.552 32.1893 92.912 32.616 92.208 32.936C91.504 33.256 90.7573 33.416 89.968 33.416C89.0293 33.416 88.0693 33.224 87.088 32.84C86.128 32.4347 85.296 31.72 84.592 30.696C83.9093 29.672 83.568 28.296 83.568 26.568V17H87.536V26.568C87.536 27.7627 87.8667 28.6267 88.528 29.16C89.2107 29.672 90 29.928 90.896 29.928C91.792 29.928 92.5493 29.6187 93.168 29C93.808 28.36 94.128 27.3467 94.128 25.96V17ZM114.091 10.6H118.059V33H114.091V31.464C113.366 32.104 112.555 32.5947 111.659 32.936C110.763 33.2773 109.835 33.448 108.875 33.448C107.254 33.448 105.835 33.0853 104.619 32.36C103.403 31.6347 102.465 30.632 101.803 29.352C101.163 28.072 100.843 26.632 100.843 25.032C100.843 23.432 101.163 21.992 101.803 20.712C102.465 19.432 103.403 18.4293 104.619 17.704C105.835 16.9573 107.254 16.584 108.875 16.584C109.835 16.584 110.753 16.7653 111.627 17.128C112.523 17.4693 113.345 17.9493 114.091 18.568V10.6ZM109.387 29.64C110.262 29.64 111.051 29.448 111.755 29.064C112.481 28.6587 113.046 28.104 113.451 27.4C113.878 26.696 114.091 25.896 114.091 25C114.091 23.656 113.633 22.5573 112.715 21.704C111.819 20.8507 110.71 20.424 109.387 20.424C108.043 20.424 106.934 20.8613 106.059 21.736C105.206 22.5893 104.779 23.688 104.779 25.032C104.779 26.376 105.206 27.4853 106.059 28.36C106.934 29.2133 108.043 29.64 109.387 29.64ZM124.19 14.344C123.443 14.344 122.856 14.1413 122.43 13.736C122.003 13.3307 121.79 12.776 121.79 12.072C121.79 11.3467 122.003 10.7813 122.43 10.376C122.856 9.97067 123.443 9.768 124.19 9.768C124.936 9.768 125.523 9.97067 125.95 10.376C126.376 10.7813 126.59 11.3467 126.59 12.072C126.59 12.7547 126.366 13.3093 125.918 13.736C125.491 14.1413 124.915 14.344 124.19 14.344ZM122.174 33V17H126.142V33H122.174ZM137.006 33.448C135.491 33.448 134.083 33.0747 132.782 32.328C131.502 31.56 130.478 30.536 129.71 29.256C128.963 27.9547 128.59 26.5467 128.59 25.032C128.59 23.5173 128.963 22.12 129.71 20.84C130.478 19.5387 131.502 18.5147 132.782 17.768C134.083 17 135.491 16.616 137.006 16.616C138.52 16.616 139.918 17 141.198 17.768C142.499 18.5147 143.523 19.5387 144.27 20.84C145.038 22.12 145.422 23.5173 145.422 25.032C145.422 26.5467 145.038 27.9547 144.27 29.256C143.523 30.536 142.499 31.56 141.198 32.328C139.918 33.0747 138.52 33.448 137.006 33.448ZM136.974 29.48C137.784 29.48 138.531 29.288 139.214 28.904C139.896 28.4987 140.44 27.9547 140.846 27.272C141.251 26.5893 141.454 25.8427 141.454 25.032C141.454 24.2213 141.251 23.4747 140.846 22.792C140.44 22.1093 139.896 21.5653 139.214 21.16C138.531 20.7547 137.784 20.552 136.974 20.552C136.163 20.552 135.416 20.7547 134.734 21.16C134.051 21.5653 133.507 22.1093 133.102 22.792C132.718 23.4747 132.526 24.2213 132.526 25.032C132.526 25.8427 132.718 26.5893 133.102 27.272C133.507 27.9547 134.051 28.4987 134.734 28.904C135.416 29.288 136.163 29.48 136.974 29.48ZM157.138 16.584C158.76 16.584 160.178 16.9467 161.394 17.672C162.632 18.3973 163.57 19.4 164.21 20.68C164.872 21.96 165.202 23.4 165.202 25C165.202 26.6 164.872 28.04 164.21 29.32C163.57 30.6 162.632 31.6133 161.394 32.36C160.178 33.0853 158.76 33.448 157.138 33.448C156.178 33.448 155.25 33.2773 154.354 32.936C153.48 32.5733 152.669 32.072 151.922 31.432V39.4H147.954V17H151.922V18.568C152.648 17.928 153.458 17.4373 154.354 17.096C155.25 16.7547 156.178 16.584 157.138 16.584ZM156.658 29.608C157.981 29.608 159.069 29.1813 159.922 28.328C160.797 27.4533 161.234 26.344 161.234 25C161.234 23.656 160.797 22.5573 159.922 21.704C159.069 20.8293 157.981 20.392 156.658 20.392C155.784 20.392 154.984 20.5947 154.258 21C153.533 21.384 152.957 21.928 152.53 22.632C152.125 23.336 151.922 24.136 151.922 25.032C151.922 26.376 152.37 27.4747 153.266 28.328C154.184 29.1813 155.314 29.608 156.658 29.608ZM177.396 16.68L177.108 20.424C176.98 20.3813 176.756 20.36 176.436 20.36C175.113 20.36 174.014 20.744 173.14 21.512C172.286 22.28 171.86 23.3253 171.86 24.648V33H167.892V17H171.86V19.688C172.222 18.8347 172.841 18.12 173.716 17.544C174.59 16.968 175.646 16.68 176.884 16.68H177.396ZM186.568 33.448C185.053 33.448 183.645 33.0747 182.344 32.328C181.064 31.56 180.04 30.536 179.272 29.256C178.525 27.9547 178.152 26.5467 178.152 25.032C178.152 23.5173 178.525 22.12 179.272 20.84C180.04 19.5387 181.064 18.5147 182.344 17.768C183.645 17 185.053 16.616 186.568 16.616C188.083 16.616 189.48 17 190.76 17.768C192.061 18.5147 193.085 19.5387 193.832 20.84C194.6 22.12 194.984 23.5173 194.984 25.032C194.984 26.5467 194.6 27.9547 193.832 29.256C193.085 30.536 192.061 31.56 190.76 32.328C189.48 33.0747 188.083 33.448 186.568 33.448ZM186.536 29.48C187.347 29.48 188.093 29.288 188.776 28.904C189.459 28.4987 190.003 27.9547 190.408 27.272C190.813 26.5893 191.016 25.8427 191.016 25.032C191.016 24.2213 190.813 23.4747 190.408 22.792C190.003 22.1093 189.459 21.5653 188.776 21.16C188.093 20.7547 187.347 20.552 186.536 20.552C185.725 20.552 184.979 20.7547 184.296 21.16C183.613 21.5653 183.069 22.1093 182.664 22.792C182.28 23.4747 182.088 24.2213 182.088 25.032C182.088 25.8427 182.28 26.5893 182.664 27.272C183.069 27.9547 183.613 28.4987 184.296 28.904C184.979 29.288 185.725 29.48 186.536 29.48ZM218.009 21.768L225.273 33H220.281L215.097 24.968L209.913 33H204.921L212.185 21.768L204.953 10.6H209.945L215.097 18.568L220.249 10.6H225.241L218.009 21.768Z" fill="white"/>
</svg>
