<svg width="226" height="42" viewBox="0 0 226 42" fill="none" xmlns="http://www.w3.org/2000/svg">
<path d="M25.896 21.0321C27.2728 21.0321 28.636 21.3022 29.908 21.8269C31.18 22.3516 32.3357 23.1207 33.3092 24.0903C34.2828 25.0599 35.055 26.2109 35.5819 27.4777C36.1087 28.7445 36.3799 30.1022 36.3799 31.4734C36.3799 32.8446 36.1087 34.2023 35.5819 35.4691C35.055 36.7359 34.2828 37.8869 33.3092 38.8565C32.3357 39.8261 31.18 40.5952 29.908 41.1199C28.636 41.6446 27.2728 41.9147 25.896 41.9147L25.896 21.0321Z" fill="#24AD37"/>
<path d="M15.4365 21.0321C14.071 21.0321 12.7187 20.762 11.4571 20.2373C10.1955 19.7126 9.04916 18.9435 8.08356 17.9739C7.11795 17.0044 6.35199 15.8533 5.82941 14.5865C5.30683 13.3197 5.03786 11.962 5.03786 10.5908C5.03786 9.21965 5.30683 7.86191 5.82941 6.59511C6.35199 5.32832 7.11795 4.17728 8.08356 3.20772C9.04916 2.23815 10.1955 1.46905 11.4571 0.944331C12.7188 0.419608 14.071 0.149536 15.4365 0.149536L15.4365 21.0321Z" fill="#FF282B"/>
<path d="M42 20.8934L25.7324 20.8934C20.0151 20.8934 15.3803 16.2586 15.3803 10.5413V10.5413C15.3803 4.82401 20.0151 0.189207 25.7324 0.189208L42 0.189209L42 20.8934Z" fill="#FFBE17"/>
<path d="M0 20.8934H15.5282C21.3272 20.8934 26.0282 25.5944 26.0282 31.3934V31.3934C26.0282 37.1924 21.3272 41.8934 15.5282 41.8934H0V20.8934Z" fill="#0084FE"/>
<path d="M61.728 32.416C59.5307 32.416 57.6853 31.9253 56.192 30.944C54.6987 29.9627 53.6533 28.64 53.056 26.976L56.576 24.896C57.4507 27.1787 59.2 28.32 61.824 28.32C62.9973 28.32 63.904 28.0427 64.544 27.488C65.184 26.9333 65.504 26.2933 65.504 25.568C65.504 24.8427 65.152 24.256 64.448 23.808C63.7653 23.36 62.5387 22.88 60.768 22.368C59.3813 21.9413 58.208 21.4827 57.248 20.992C56.288 20.48 55.4987 19.7973 54.88 18.944C54.2827 18.0907 53.984 17.0133 53.984 15.712C53.984 14.3893 54.3147 13.2373 54.976 12.256C55.6373 11.2533 56.512 10.496 57.6 9.984C58.7093 9.45067 59.9147 9.184 61.216 9.184C63.0293 9.184 64.5973 9.62133 65.92 10.496C67.264 11.3493 68.2987 12.5547 69.024 14.112L65.44 16.16C64.608 14.2613 63.2 13.312 61.216 13.312C60.32 13.312 59.584 13.5467 59.008 14.016C58.432 14.4853 58.144 15.04 58.144 15.68C58.144 16.1707 58.272 16.5867 58.528 16.928C58.8053 17.2693 59.232 17.5787 59.808 17.856C60.4053 18.1333 61.2693 18.4427 62.4 18.784C63.872 19.2533 65.1093 19.744 66.112 20.256C67.136 20.768 67.9787 21.4827 68.64 22.4C69.3227 23.296 69.664 24.4267 69.664 25.792C69.664 27.136 69.3227 28.3093 68.64 29.312C67.9573 30.3147 67.008 31.0827 65.792 31.616C64.5973 32.1493 63.2427 32.416 61.728 32.416ZM77.4278 26.528C77.4278 27.2533 77.5984 27.7547 77.9398 28.032C78.2811 28.3093 78.8251 28.448 79.5718 28.448C80.0198 28.448 80.5104 28.416 81.0438 28.352V32C80.0411 32.1067 79.2091 32.16 78.5478 32.16C76.8411 32.16 75.5611 31.776 74.7078 31.008C73.8758 30.2187 73.4598 28.8107 73.4598 26.784V19.552H70.4518V16H73.4598V12.064L77.4278 10.72V16H80.9798V19.552H77.4278V26.528ZM94.128 16H98.096V32H94.128V30.656C93.552 31.1893 92.912 31.616 92.208 31.936C91.504 32.256 90.7573 32.416 89.968 32.416C89.0293 32.416 88.0693 32.224 87.088 31.84C86.128 31.4347 85.296 30.72 84.592 29.696C83.9093 28.672 83.568 27.296 83.568 25.568V16H87.536V25.568C87.536 26.7627 87.8667 27.6267 88.528 28.16C89.2107 28.672 90 28.928 90.896 28.928C91.792 28.928 92.5493 28.6187 93.168 28C93.808 27.36 94.128 26.3467 94.128 24.96V16ZM114.091 9.6H118.059V32H114.091V30.464C113.366 31.104 112.555 31.5947 111.659 31.936C110.763 32.2773 109.835 32.448 108.875 32.448C107.254 32.448 105.835 32.0853 104.619 31.36C103.403 30.6347 102.465 29.632 101.803 28.352C101.163 27.072 100.843 25.632 100.843 24.032C100.843 22.432 101.163 20.992 101.803 19.712C102.465 18.432 103.403 17.4293 104.619 16.704C105.835 15.9573 107.254 15.584 108.875 15.584C109.835 15.584 110.753 15.7653 111.627 16.128C112.523 16.4693 113.345 16.9493 114.091 17.568V9.6ZM109.387 28.64C110.262 28.64 111.051 28.448 111.755 28.064C112.481 27.6587 113.046 27.104 113.451 26.4C113.878 25.696 114.091 24.896 114.091 24C114.091 22.656 113.633 21.5573 112.715 20.704C111.819 19.8507 110.71 19.424 109.387 19.424C108.043 19.424 106.934 19.8613 106.059 20.736C105.206 21.5893 104.779 22.688 104.779 24.032C104.779 25.376 105.206 26.4853 106.059 27.36C106.934 28.2133 108.043 28.64 109.387 28.64ZM124.19 13.344C123.443 13.344 122.856 13.1413 122.43 12.736C122.003 12.3307 121.79 11.776 121.79 11.072C121.79 10.3467 122.003 9.78133 122.43 9.376C122.856 8.97067 123.443 8.768 124.19 8.768C124.936 8.768 125.523 8.97067 125.95 9.376C126.376 9.78133 126.59 10.3467 126.59 11.072C126.59 11.7547 126.366 12.3093 125.918 12.736C125.491 13.1413 124.915 13.344 124.19 13.344ZM122.174 32V16H126.142V32H122.174ZM137.006 32.448C135.491 32.448 134.083 32.0747 132.782 31.328C131.502 30.56 130.478 29.536 129.71 28.256C128.963 26.9547 128.59 25.5467 128.59 24.032C128.59 22.5173 128.963 21.12 129.71 19.84C130.478 18.5387 131.502 17.5147 132.782 16.768C134.083 16 135.491 15.616 137.006 15.616C138.52 15.616 139.918 16 141.198 16.768C142.499 17.5147 143.523 18.5387 144.27 19.84C145.038 21.12 145.422 22.5173 145.422 24.032C145.422 25.5467 145.038 26.9547 144.27 28.256C143.523 29.536 142.499 30.56 141.198 31.328C139.918 32.0747 138.52 32.448 137.006 32.448ZM136.974 28.48C137.784 28.48 138.531 28.288 139.214 27.904C139.896 27.4987 140.44 26.9547 140.846 26.272C141.251 25.5893 141.454 24.8427 141.454 24.032C141.454 23.2213 141.251 22.4747 140.846 21.792C140.44 21.1093 139.896 20.5653 139.214 20.16C138.531 19.7547 137.784 19.552 136.974 19.552C136.163 19.552 135.416 19.7547 134.734 20.16C134.051 20.5653 133.507 21.1093 133.102 21.792C132.718 22.4747 132.526 23.2213 132.526 24.032C132.526 24.8427 132.718 25.5893 133.102 26.272C133.507 26.9547 134.051 27.4987 134.734 27.904C135.416 28.288 136.163 28.48 136.974 28.48ZM157.138 15.584C158.76 15.584 160.178 15.9467 161.394 16.672C162.632 17.3973 163.57 18.4 164.21 19.68C164.872 20.96 165.202 22.4 165.202 24C165.202 25.6 164.872 27.04 164.21 28.32C163.57 29.6 162.632 30.6133 161.394 31.36C160.178 32.0853 158.76 32.448 157.138 32.448C156.178 32.448 155.25 32.2773 154.354 31.936C153.48 31.5733 152.669 31.072 151.922 30.432V38.4H147.954V16H151.922V17.568C152.648 16.928 153.458 16.4373 154.354 16.096C155.25 15.7547 156.178 15.584 157.138 15.584ZM156.658 28.608C157.981 28.608 159.069 28.1813 159.922 27.328C160.797 26.4533 161.234 25.344 161.234 24C161.234 22.656 160.797 21.5573 159.922 20.704C159.069 19.8293 157.981 19.392 156.658 19.392C155.784 19.392 154.984 19.5947 154.258 20C153.533 20.384 152.957 20.928 152.53 21.632C152.125 22.336 151.922 23.136 151.922 24.032C151.922 25.376 152.37 26.4747 153.266 27.328C154.184 28.1813 155.314 28.608 156.658 28.608ZM177.396 15.68L177.108 19.424C176.98 19.3813 176.756 19.36 176.436 19.36C175.113 19.36 174.014 19.744 173.14 20.512C172.286 21.28 171.86 22.3253 171.86 23.648V32H167.892V16H171.86V18.688C172.222 17.8347 172.841 17.12 173.716 16.544C174.59 15.968 175.646 15.68 176.884 15.68H177.396ZM186.568 32.448C185.053 32.448 183.645 32.0747 182.344 31.328C181.064 30.56 180.04 29.536 179.272 28.256C178.525 26.9547 178.152 25.5467 178.152 24.032C178.152 22.5173 178.525 21.12 179.272 19.84C180.04 18.5387 181.064 17.5147 182.344 16.768C183.645 16 185.053 15.616 186.568 15.616C188.083 15.616 189.48 16 190.76 16.768C192.061 17.5147 193.085 18.5387 193.832 19.84C194.6 21.12 194.984 22.5173 194.984 24.032C194.984 25.5467 194.6 26.9547 193.832 28.256C193.085 29.536 192.061 30.56 190.76 31.328C189.48 32.0747 188.083 32.448 186.568 32.448ZM186.536 28.48C187.347 28.48 188.093 28.288 188.776 27.904C189.459 27.4987 190.003 26.9547 190.408 26.272C190.813 25.5893 191.016 24.8427 191.016 24.032C191.016 23.2213 190.813 22.4747 190.408 21.792C190.003 21.1093 189.459 20.5653 188.776 20.16C188.093 19.7547 187.347 19.552 186.536 19.552C185.725 19.552 184.979 19.7547 184.296 20.16C183.613 20.5653 183.069 21.1093 182.664 21.792C182.28 22.4747 182.088 23.2213 182.088 24.032C182.088 24.8427 182.28 25.5893 182.664 26.272C183.069 26.9547 183.613 27.4987 184.296 27.904C184.979 28.288 185.725 28.48 186.536 28.48ZM218.009 20.768L225.273 32H220.281L215.097 23.968L209.913 32H204.921L212.185 20.768L204.953 9.6H209.945L215.097 17.568L220.249 9.6H225.241L218.009 20.768Z" fill="#142042"/>
</svg>
