<svg width="148" height="36" viewBox="0 0 148 36" fill="none" xmlns="http://www.w3.org/2000/svg">
<path d="M16.4119 0.439848C14.5113 0.655118 11.6604 1.54932 10.0384 2.44352C5.68021 4.81148 2.73105 8.50419 1.25646 13.4223C0.961549 14.3827 0.61748 16.9991 0.633864 18.2245C0.633864 19.3008 0.961549 21.9337 1.15816 22.563C1.25646 22.861 1.46946 23.5731 1.64969 24.1195C1.9446 25.0469 3.37003 27.9613 3.61579 28.16C3.66495 28.2097 3.92709 28.5409 4.17286 28.9217C4.77907 29.8325 6.36834 31.4553 7.56439 32.3826C8.48191 33.0946 11.0706 34.6015 11.3983 34.6181C11.4802 34.6181 11.4966 33.9888 11.4475 33.1609C11.3328 31.3228 11.6768 28.8224 12.4141 26.2722C12.5452 25.8417 12.6435 25.2787 12.6435 25.0303C12.6435 24.7819 12.709 24.517 12.791 24.4342C12.8729 24.3348 13.0203 23.8546 13.1023 23.3578C13.2006 22.861 13.3644 22.0993 13.4791 21.6688C13.6429 21.023 13.6266 20.7746 13.3972 20.0791C13.0695 19.0193 13.0531 17.2971 13.3808 16.4692C14.1509 14.4986 15.0028 13.7535 16.4446 13.7535C18.1814 13.7535 19.017 15.0782 18.6893 17.2971C18.5418 18.3073 18.1322 19.8969 17.8701 20.3937C17.8045 20.5428 17.6898 20.9567 17.6407 21.3045C17.5752 21.6688 17.4441 22.1821 17.3622 22.4636C17.1328 23.1094 17.5752 24.3679 18.165 24.8482C18.7221 25.2953 19.8853 25.4277 20.9503 25.1793C21.704 25.0137 22.0153 24.815 22.8017 24.0533C23.7356 23.126 24.4401 22.0496 24.4401 21.5363C24.4401 21.3873 24.5221 21.1886 24.6204 21.0892C25.0791 20.6255 25.3249 17.0156 24.9808 15.4922C24.604 13.8197 23.4407 12.1803 21.9334 11.2199C20.426 10.2429 17.313 9.9614 15.3961 10.6238C14.0525 11.0874 12.8565 11.8657 12.0864 12.7765C11.3983 13.5879 10.6774 14.9126 10.6774 15.3763C10.6774 15.5419 10.5955 15.7571 10.4972 15.8565C10.3989 15.9558 10.2842 16.5851 10.235 17.264C10.1531 18.2741 10.2186 18.7378 10.5136 19.7313C10.7102 20.4103 11.0706 21.2051 11.2836 21.5032C11.726 22.0993 11.726 22.3311 11.3164 23.9208C11.2017 24.3514 11.0051 24.7488 10.8904 24.7985C9.85818 25.1959 7.761 22.6955 7.05648 20.2116C6.79433 19.2677 6.77795 15.9062 7.0401 14.9126C7.15479 14.4986 7.3514 13.9356 7.48247 13.6376C7.61354 13.356 7.72823 13.0745 7.72823 13.0083C7.72823 12.9421 8.05592 12.3791 8.46552 11.7664C10.5955 8.52075 14.0525 6.79859 18.4271 6.79859C19.4266 6.79859 20.4588 6.86483 20.7373 6.94763C22.9983 7.65967 23.6046 7.8915 24.4893 8.4214C26.2096 9.46463 27.4548 10.8887 28.7 13.2732C28.782 13.4223 28.8967 13.8197 28.9458 14.1509C29.0113 14.4821 29.126 14.7967 29.208 14.8464C29.2899 14.8961 29.3554 15.9724 29.3554 17.2475C29.3554 19.5492 29.1916 20.4765 28.5034 22.3643C27.7334 24.4342 25.7509 26.7193 23.9486 27.6135C22.9164 28.1103 20.9831 28.6568 20.213 28.6568C19.1808 28.6568 17.1492 27.7957 16.5921 27.1002C16.33 26.7856 16.0842 26.9015 16.0842 27.3486C16.0842 27.5142 16.0187 27.7957 15.9203 27.9613C15.8384 28.1103 15.691 28.574 15.609 28.988C15.1339 31.1738 14.4622 32.9456 13.4299 34.6015C13.1186 35.1149 13.3808 35.4129 14.2328 35.5289C14.6588 35.5951 15.2322 35.711 15.4944 35.7938C16.1497 36.0091 19.7051 35.976 20.9012 35.7607C21.9825 35.562 23.7356 35.0652 24.5221 34.734C29.4701 32.6807 33.2221 28.5077 34.8441 23.1922C35.7125 20.3606 35.7616 17.0653 34.9752 13.7535C34.7131 12.6771 34.6311 12.4287 33.9266 10.7728C32.9108 8.35516 30.617 5.52353 28.2904 3.78481C26.2916 2.29448 24.3255 1.4334 21.2616 0.688237C20.4096 0.489526 17.3785 0.323934 16.4119 0.439848ZM60.1086 6.41773C59.4696 6.51709 58.4538 7.57688 58.1917 8.40484C57.9131 9.31559 58.1916 10.2926 58.9781 11.0543C60.7148 12.7599 63.7295 11.1537 63.3527 8.7029C63.1233 7.14634 61.7143 6.15278 60.1086 6.41773ZM42.2498 7.39472C42.1023 7.56032 42.1023 27.5307 42.2662 27.7626C42.3481 27.8951 43.0526 27.9447 44.4289 27.9282L46.4769 27.9116L46.5588 24.5501C46.6244 21.8178 46.6899 21.1554 46.8865 21.0395C47.0176 20.9567 48.1317 20.8739 49.3606 20.8739C52.0476 20.8739 53.1781 20.6752 54.4069 20.0129C56.0126 19.1352 56.9465 17.8767 57.4544 15.873C57.7657 14.6145 57.7657 13.7038 57.438 12.4122C57.1431 11.253 57.012 10.9715 56.3075 10.0276C55.4391 8.85194 54.5544 8.20613 53.1125 7.69279C52.3097 7.42784 51.638 7.37817 47.2961 7.32849C44.5927 7.29537 42.3153 7.32849 42.2498 7.39472ZM51.2447 11.518C52.3425 11.8657 52.8832 12.3625 53.1289 13.2567C53.4402 14.4324 53.2108 15.5253 52.5227 16.1877C51.769 16.8997 51.0973 17.0653 48.9018 17.0653C47.46 17.0653 47.0176 17.0156 46.821 16.8004C46.608 16.6017 46.5588 16.1214 46.5588 14.2337C46.5588 11.253 46.5425 11.2696 48.8199 11.2696C49.8029 11.2696 50.7532 11.3689 51.2447 11.518ZM79.9827 10.541C79.9827 11.6836 79.9008 12.7599 79.8188 12.9421C79.7041 13.1573 79.4748 13.2567 79.0815 13.2567C78.7866 13.2567 78.5081 13.3229 78.4753 13.4223C78.4589 13.5051 78.4589 14.0847 78.5081 14.6973C78.59 15.7903 78.6064 15.8068 79.0979 15.9227C79.3765 15.9724 79.6878 16.0718 79.7861 16.138C79.9335 16.2208 79.9827 17.529 79.9827 20.8408C79.9827 25.2952 79.9991 25.4608 80.3595 26.1232C81.1132 27.5307 82.2929 28.0275 84.685 27.9613L86.2906 27.9116L86.3398 26.3054L86.3889 24.6826H85.9793C85.3567 24.6826 84.4392 24.1858 84.3409 23.7884C84.2917 23.5897 84.2426 21.8344 84.2426 19.8638C84.2426 17.1481 84.2917 16.2374 84.4556 16.1049C84.5703 16.0055 85.029 15.9062 85.4714 15.873L86.2906 15.8234V13.3395L85.3895 13.2898C84.8979 13.2567 84.4392 13.1408 84.3736 13.0414C84.3081 12.9255 84.2426 11.8492 84.2426 10.6403V8.45452H79.9827V10.541ZM140.883 8.55387C140.817 8.62011 140.768 9.66334 140.768 10.8722C140.768 13.2236 140.752 13.2567 139.851 13.2567C139.441 13.2567 139.441 13.2732 139.49 14.5318C139.539 15.7903 139.556 15.8234 139.982 15.873C140.211 15.9062 140.49 16.0221 140.572 16.1214C140.67 16.2374 140.768 18.241 140.817 20.7911C140.866 23.2419 140.948 25.4774 141.014 25.7423C141.211 26.471 142.226 27.3983 143.193 27.7129C144.274 28.0772 147.027 28.1103 147.305 27.7626C147.437 27.6135 147.486 27.0174 147.453 26.1563L147.404 24.7654L146.83 24.666C146.208 24.5666 145.503 24.2355 145.323 23.954C145.257 23.8546 145.192 22.0496 145.192 19.9466C145.192 15.6247 145.094 15.9062 146.519 15.9062C147.453 15.9062 147.535 15.7406 147.453 14.2337L147.404 13.3395L146.339 13.2567L145.274 13.1739L145.192 10.8556L145.11 8.53731L143.046 8.48763C141.915 8.47107 140.948 8.50419 140.883 8.55387ZM71.8725 12.8593C71.0697 13.0745 70.1358 13.621 69.5132 14.2668C68.7595 15.0616 68.5629 15.012 68.4809 14.0019L68.4318 13.3395H64.3357V27.9116L66.4001 27.9447C68.4318 27.9944 68.4809 27.9778 68.5792 27.6135C68.6284 27.4148 68.6776 25.3118 68.6776 22.9273C68.6776 18.2079 68.6939 18.0754 69.6606 17.1481C70.0866 16.7341 70.316 16.6513 71.2335 16.6017L72.2985 16.5354L72.9375 17.2143C73.6911 18.0092 73.6092 17.2475 73.6747 24.103C73.6911 25.9245 73.7075 27.5307 73.7239 27.6963C73.7567 27.9282 74.0188 27.9613 75.8538 27.9282L77.9346 27.9116V16.287L77.4595 15.3432C76.6403 13.7038 75.3787 12.9255 73.4454 12.8262C72.7572 12.8096 72.0527 12.8096 71.8725 12.8593ZM92.3528 12.8593C90.5833 13.3395 89.7313 13.8197 88.6336 14.9126C87.159 16.4195 86.4872 18.1748 86.4872 20.5428C86.5036 24.6991 89.0759 27.7791 92.8771 28.1434C96.1211 28.4581 98.6279 27.4976 100.234 25.3284C100.463 25.0137 100.954 24.0036 100.954 23.8215C100.954 23.7552 100.004 23.689 98.8573 23.689H96.7601L96.2686 24.2023C95.6952 24.7985 94.8923 25.1793 94.155 25.1793C93.4177 25.1793 92.2872 24.6494 91.7629 24.0864C91.3697 23.6393 90.7963 22.3477 90.7963 21.9006C90.7963 21.7516 91.9923 21.7019 95.8426 21.7019C98.6115 21.7019 100.954 21.6357 101.069 21.5694C101.315 21.4038 101.086 18.7709 100.725 17.8105C99.9878 15.8068 98.5952 14.1178 97.1861 13.5216C96.7765 13.356 96.3014 13.1408 96.1375 13.058C95.7935 12.8758 92.8771 12.7268 92.3528 12.8593ZM95.5477 16.4857C96.1867 16.9328 96.7437 17.9926 96.6618 18.5888C96.6127 18.9696 96.5799 18.9696 93.811 19.0193C90.616 19.069 90.5997 19.0524 91.1076 17.8602C91.468 17.0322 92.1889 16.287 92.8607 16.0718C93.6307 15.8234 94.8759 16.0221 95.5477 16.4857ZM116.601 12.8593C114.701 13.3726 113.374 14.2171 112.342 15.5253C111.932 16.0552 111.604 16.552 111.604 16.6513C111.604 16.7341 111.49 17.0322 111.342 17.3137C111.195 17.5786 110.982 18.4066 110.867 19.1518C110.293 22.6954 111.866 26.0073 114.816 27.4976L115.946 28.0772H118.322C120.779 28.0772 120.992 28.0275 122.5 27.2161C123.597 26.62 125.4 24.3017 125.121 23.838C125.056 23.7552 124.122 23.689 123.024 23.689H121.009L120.599 24.1692C118.961 26.0404 115.897 25.08 115.242 22.4802C115.143 22.1324 115.143 21.8344 115.225 21.7681C115.307 21.7185 117.65 21.6853 120.452 21.7019C124.449 21.7019 125.531 21.6688 125.547 21.5032C125.695 19.4333 124.712 16.3698 123.483 15.0451C122.795 14.2999 121.599 13.472 121.009 13.3229C120.747 13.2567 120.452 13.1408 120.337 13.058C120.108 12.8758 117.109 12.7268 116.601 12.8593ZM119.157 16.0883C119.895 16.3533 120.747 17.2806 120.878 17.9926C121.074 19.069 121.091 19.069 118.043 19.0193C115.307 18.9696 115.291 18.9696 115.242 18.5888C115.176 18.1251 115.749 16.9825 116.241 16.552C116.945 15.9558 118.174 15.7571 119.157 16.0883ZM130.856 12.8593C127.497 13.6707 126.285 14.8795 126.268 17.3965C126.268 20.1122 127.612 21.2548 131.593 21.9668C134.329 22.4471 135.116 22.8776 135.083 23.9208C135.066 24.666 134.559 25.1462 133.543 25.3615C132.265 25.643 131.265 25.3284 130.462 24.4176L129.823 23.689H127.841C126.235 23.689 125.859 23.7387 125.859 23.9208C125.859 24.4011 126.514 25.6596 127.055 26.2888C127.562 26.8353 127.956 27.1002 129.496 27.8454C129.643 27.9282 130.446 28.0606 131.249 28.16C132.74 28.3421 135.329 28.1766 135.984 27.8454C136.131 27.7791 136.557 27.5639 136.918 27.3983C137.852 26.9512 138.737 25.9411 139.064 24.9806C139.425 23.8877 139.326 22.3643 138.818 21.3045C138.212 20.0625 136.607 19.1683 134.214 18.7378C131.134 18.1913 131.085 18.1748 130.594 17.6946C130.004 17.0819 130.004 16.8666 130.594 16.2042C131.069 15.6743 131.101 15.6578 132.412 15.6578C133.723 15.6578 133.756 15.6743 134.231 16.2042C134.493 16.5023 134.706 16.85 134.706 16.9825C134.706 17.1812 135.05 17.2309 136.754 17.2309C139.015 17.2309 138.95 17.2806 138.556 16.1049C137.835 14.0184 135.984 12.9586 132.904 12.8427C131.953 12.8096 131.036 12.8096 130.856 12.8593ZM109.065 13.207C108.344 13.4554 107.344 14.2834 107.033 14.8795C106.722 15.4756 106.443 15.2272 106.361 14.2337L106.279 13.3395H102.183L102.134 20.2944C102.118 24.1195 102.134 27.4148 102.183 27.6301C102.265 27.9944 102.314 27.9944 104.28 27.9613C105.411 27.9447 106.329 27.8454 106.394 27.746C106.46 27.6632 106.525 25.9079 106.525 23.8546C106.525 20.609 106.558 20.0294 106.836 19.3008C107.41 17.7939 108.639 16.8997 110.179 16.8997C110.605 16.8997 110.785 16.8169 110.834 16.6017C110.949 16.1214 110.965 13.8859 110.867 13.3892C110.769 12.9917 110.687 12.9255 110.244 12.9421C109.949 12.9586 109.425 13.0745 109.065 13.207ZM58.6013 13.4554C58.5521 13.5713 58.5357 16.8335 58.5521 20.7083L58.6013 27.746L60.551 27.8288C61.7306 27.8785 62.5826 27.8454 62.7137 27.746C62.8939 27.6135 62.9431 26.206 62.9431 20.5759C62.9595 16.7341 62.9103 13.5051 62.8612 13.4223C62.6973 13.1739 58.6832 13.207 58.6013 13.4554Z" fill="#D71818"/>
</svg>
