<svg width="113" height="38" viewBox="0 0 113 38" fill="none" xmlns="http://www.w3.org/2000/svg">
<path d="M108.01 7.30198H103.065V0.378632H92.2064L87.2127 7.30198H78.339L75.3718 10.2691V7.30198H68.4485V0.378632H46.6894V7.30198H16.0783L11.0836 0.378632H0.204102V24.1158L14.0508 37.9625H27.8975V34.0063L31.8537 37.9625H58.558V34.0063L62.5142 37.9625H75.3718V34.0063L79.328 37.9625H104.054L112.956 29.0611V12.2472L108.01 7.30198ZM17.0179 17.1925H10.0946V19.1706H17.0179V27.083H6.1384L2.1822 23.1268V2.35673H10.0946V9.28007H17.0179V17.1925ZM46.6894 27.083H22.9522L18.996 23.1268V9.28007H26.9084V19.1706H28.8865V9.28007H36.7989V19.1706H38.777V9.28007H46.6894V27.083ZM56.5799 27.083H48.6675V9.28007H56.5799V27.083ZM56.5799 7.30198H48.6675V2.35673H56.5799V7.30198ZM73.3937 17.1925H66.4704V19.1706H73.3937V27.083H62.5142L58.558 23.1268V2.35673H66.4704V9.28007H73.3937V17.1925ZM91.1966 17.1925H83.2842V19.1706H91.1966V27.083H79.328L75.3718 23.1268V13.2363L79.328 9.28007H91.1966V17.1925ZM110.978 27.083H103.065V17.1925H101.087V27.083H93.1747V2.35673H101.087V9.28007H107.021L110.978 13.2363V27.083Z" fill="#9146FF"/>
</svg>
