<svg width="141" height="36" viewBox="0 0 141 36" fill="none" xmlns="http://www.w3.org/2000/svg">
<path d="M45.9911 14.3254C45.9911 11.8083 43.5434 9.13491 39.3076 9.13491C34.5511 9.13491 29.3259 12.6242 28.5274 19.5854C27.7115 26.616 32.0861 29.7407 36.4954 29.7407C40.9047 29.7407 43.2136 28.0221 45.5745 25.7307C43.5434 23.1788 40.9221 24.3593 40.4187 24.6196C39.8632 24.8974 39.1514 25.2793 37.6932 25.2793C35.992 25.2793 34.256 24.5155 34.256 21.3387C45.1578 20.2624 45.9911 16.8426 45.9911 14.3254ZM40.5923 14.7421C40.5228 15.5232 40.2103 16.8599 34.69 17.6064C35.8531 13.4748 38.0751 13.1623 39.0993 13.1623C40.0541 13.1623 40.6617 13.9088 40.5923 14.7421ZM22.1217 15.4191C22.1217 15.4191 19.7781 22.7795 19.5872 23.3871C19.5177 22.7622 17.7991 9.55154 17.7991 9.55154C13.8064 9.55154 11.6712 12.3985 10.5429 15.4017C10.5429 15.4017 7.69588 22.7795 7.45285 23.4045C7.43549 22.8316 7.01886 15.4885 7.01886 15.4885C6.77582 11.8083 3.40807 9.5689 0.682617 9.5689L3.98093 29.5845C8.16459 29.5671 10.4213 26.7375 11.6018 23.7343C11.6018 23.7343 14.1189 17.2245 14.2231 16.9294C14.2404 17.2071 16.0285 29.5845 16.0285 29.5845C20.2295 29.5845 22.4862 26.9285 23.7014 24.0294L29.5863 9.5689C25.4374 9.5689 23.2501 12.3985 22.1217 15.4191ZM61.4064 9.10019C58.8198 9.10019 56.8408 10.5063 55.1743 12.5721V12.5547L56.6672 0.524567C53.23 0.524567 50.4351 3.51041 49.897 7.95446L47.293 29.4282C49.272 29.4282 51.3725 28.8554 52.5009 27.3972C53.5078 28.6991 55.0181 29.7407 57.2574 29.7407C63.0555 29.7407 67.0309 23.0052 67.0309 16.6863C66.9962 10.9229 64.2013 9.10019 61.4064 9.10019ZM60.8682 19.4291C60.2606 22.9531 58.299 25.3487 56.4068 25.3487C54.4973 25.3487 53.6814 24.4981 53.6814 24.4981C54.0459 21.4081 54.2716 19.5159 54.966 17.8841C55.6604 16.2523 57.3095 13.6484 59.0281 13.6484C60.712 13.6484 61.4758 15.8878 60.8682 19.4291ZM81.5088 9.5689H77.464L77.4813 9.36059C77.7591 6.72193 78.384 5.33317 80.4498 5.10749C81.8559 4.96862 82.4809 4.23951 82.6371 3.44097C82.7586 2.81603 83.1406 0.646084 83.1406 0.646084C75.0163 0.594005 72.4644 4.10064 71.8048 9.44738L71.7874 9.5689H71.7006C70.3813 9.5689 68.9231 11.0618 68.68 12.954L68.5932 13.6484H71.3013L69.0272 32.4314L68.3328 35.7992C68.4196 35.7992 68.5238 35.8166 68.6106 35.8166C72.4123 35.6777 74.8427 32.6745 75.3808 28.3172L77.1515 13.6484H78.4187C79.6686 13.6484 81.1268 12.3985 81.3872 10.3154L81.5088 9.5689ZM102.549 9.22171C97.8788 9.22171 93.4695 12.6589 92.1154 18.0577C90.7614 23.4566 92.8098 29.8449 99.6842 29.8449C106.541 29.8449 110.499 23.1962 110.499 17.6585C110.499 12.1555 106.767 9.22171 102.549 9.22171ZM104.441 19.2555C104.198 21.7032 103.121 25.4182 100.17 25.4182C97.2018 25.4182 97.6184 21.0783 97.9135 19.0125C98.226 16.8078 99.4585 13.6658 102.115 13.6658C104.493 13.6658 104.718 16.4954 104.441 19.2555ZM133.57 15.4191C133.57 15.4191 131.227 22.7795 131.036 23.3871C130.966 22.7622 129.248 9.55154 129.248 9.55154C125.255 9.55154 123.12 12.3985 121.991 15.4017C121.991 15.4017 119.144 22.7795 118.901 23.4045C118.884 22.8316 118.467 15.4885 118.467 15.4885C118.224 11.8083 114.856 9.5689 112.131 9.5689L115.412 29.5845C119.596 29.5671 121.852 26.7375 123.033 23.7343C123.033 23.7343 125.55 17.2245 125.637 16.9294C125.671 17.2071 127.442 29.5845 127.442 29.5845C131.643 29.5845 133.9 26.9285 135.115 24.0294L141 9.5689C136.868 9.5689 134.681 12.3985 133.57 15.4191ZM85.3279 0.646084L81.9254 28.0916L81.231 31.4767C81.3178 31.4767 81.422 31.494 81.5088 31.494C85.1716 31.442 87.7756 28.2304 88.2616 24.1857L90.2233 8.44053C90.8135 3.63193 87.9492 0.646084 85.3279 0.646084Z" fill="#4353FF"/>
</svg>
