<svg width="132" height="30" viewBox="0 0 132 30" fill="none" xmlns="http://www.w3.org/2000/svg">
<path d="M22.7692 29.758L14.1857 29.5993C11.4065 29.5441 8.62048 29.6545 5.89589 29.0817C1.75097 28.2259 1.45735 24.0298 1.15006 20.5101C0.726695 15.5618 0.890579 10.5237 1.68952 5.61678C2.1402 2.86311 3.91562 1.22056 6.66069 1.04113C15.927 0.39239 25.2548 0.468306 34.5006 0.771969C35.4771 0.799575 36.4604 0.951407 37.4232 1.12394C42.1759 1.96592 42.292 6.72102 42.5992 10.7239C42.9065 14.7681 42.7768 18.8331 42.1895 22.8497C41.7184 26.1762 40.817 28.9644 37.0135 29.2335C32.2472 29.5855 27.5901 29.8685 22.8102 29.7788C22.8102 29.758 22.7828 29.758 22.7692 29.758V29.758ZM17.7229 21.3383C21.3147 19.254 24.8382 17.2043 28.4096 15.1339C24.8109 13.0496 21.2942 10.9999 17.7229 8.92948V21.3383Z" fill="#FF0000"/>
<path d="M111.447 25.9762C111.283 26.6525 111.14 27.1839 110.997 27.7498H107.637V1.55859H111.557V11.2207C111.761 10.9585 111.864 10.848 111.953 10.7307C112.622 9.799 113.489 9.19167 114.609 8.95702C116.391 8.60504 117.914 9.39871 118.453 11.131C118.802 12.2076 119.027 13.3602 119.054 14.4851C119.109 17.3769 119.068 20.2617 118.965 23.1534C118.925 24.0368 118.658 24.9409 118.324 25.7691C117.224 28.5021 113.632 28.9162 111.85 26.549C111.741 26.404 111.638 26.2453 111.447 25.9762V25.9762ZM111.638 18.771V23.5606C111.638 24.3405 112.048 24.8167 112.82 24.9961C113.578 25.1756 114.192 24.8788 114.5 24.168C114.629 23.8712 114.759 23.5606 114.766 23.2501C114.841 20.3238 114.909 17.3976 114.93 14.4644C114.93 13.9192 114.8 13.3533 114.636 12.8219C114.329 11.8626 113.482 11.5796 112.649 12.1386C112.021 12.5665 111.638 13.1738 111.638 13.9813V18.771ZM100.986 9.3297H105.09V27.7636H101.887C101.771 27.0666 101.655 26.3488 101.519 25.5069C101.3 25.8312 101.17 26.0383 101.034 26.2453C99.9685 27.7982 98.4594 28.3296 96.6772 28.0466C95.1544 27.7982 94.2394 26.6111 94.0346 24.6649C93.9731 24.0851 93.9458 23.4985 93.9458 22.9188C93.9321 18.6053 93.9458 14.2781 93.9458 9.96464V9.3159H98.0975V10.0682C98.0975 14.2367 98.0839 18.3983 98.1112 22.5668C98.1112 23.1603 98.1726 23.7746 98.2751 24.3681C98.3912 24.9754 98.8282 25.1963 99.4154 25.1549C100.365 25.079 101.02 24.3681 101.02 23.4157V10.1441C100.986 9.87492 100.986 9.62647 100.986 9.3297V9.3297ZM72.7296 9.3159H76.854V10.0958C76.854 14.2436 76.8403 18.3845 76.8677 22.5185C76.8677 23.112 76.9223 23.7263 77.0452 24.306C77.2023 24.9892 77.5983 25.2101 78.2743 25.1204C79.2098 24.9892 79.7766 24.3336 79.7834 23.3743V10.1717V9.3435H83.8874V27.7636H80.6985C80.5824 27.0804 80.4663 26.3764 80.3161 25.4861C80.1112 25.7967 79.9951 25.9762 79.879 26.1625C78.8138 27.7429 77.3183 28.3227 75.4951 28.0397C74.0338 27.8189 73.1393 26.7284 72.8662 24.9409C72.791 24.3819 72.7364 23.8298 72.7364 23.2708C72.7228 18.7917 72.7227 14.2919 72.7227 9.81281L72.7296 9.3159ZM70.6127 19.1575C70.5991 19.7786 70.5581 20.3997 70.524 21.0209C70.3669 22.8843 70.2918 25.5276 68.8032 26.8872C67.854 27.7429 66.6522 28.0535 65.4094 28.0949C64.8563 28.1087 64.2964 28.1087 63.7432 28.0328C61.1279 27.6325 59.9124 26.4662 59.4754 23.5606C58.9769 20.2065 58.936 16.7971 59.53 13.443C60.1446 9.97154 62.2615 8.74307 65.5528 8.97082C68.6256 9.19167 69.9982 11.2276 70.3601 14.1263C70.5581 15.7895 70.6537 17.4735 70.6127 19.1575V19.1575ZM66.4337 18.5225C66.4337 17.3424 66.461 16.1553 66.42 14.9751C66.3927 14.2919 66.3039 13.6017 66.1605 12.9254C65.9967 12.1455 65.505 11.7728 64.8904 11.7866C64.2895 11.8004 63.8662 12.1731 63.6476 12.8978C63.5725 13.1669 63.4906 13.443 63.4906 13.7122C63.4906 15.5618 63.4769 17.4183 63.4633 19.2679C63.4496 20.9933 63.2311 22.8015 63.7706 24.4509C63.9344 24.9547 64.3578 25.2308 64.9109 25.2308C65.4504 25.2308 65.8055 24.9616 66.0035 24.4785C66.1605 24.1058 66.2971 23.6987 66.2971 23.2984C66.3449 21.711 66.4337 20.1168 66.4337 18.5225ZM53.4527 15.0511C53.8146 13.2636 54.156 11.5175 54.5316 9.7645C55.0027 7.53531 55.5285 5.30612 55.9929 3.07003C56.109 2.52481 56.3275 2.39368 56.8396 2.40748C57.939 2.44889 59.0589 2.42128 60.2334 2.42128C59.851 3.843 59.4754 5.19569 59.1067 6.52768C57.939 10.71 56.7713 14.9061 55.6173 19.1022C55.5285 19.4266 55.4876 19.7786 55.4876 20.1237C55.4739 22.415 55.4876 24.6994 55.4876 26.9907V27.736H51.4792C51.4656 27.529 51.4383 27.3219 51.4383 27.1149C51.4383 25.8174 51.3358 24.513 51.4519 23.2294C51.7455 20.1444 50.7759 17.3079 49.9906 14.4368C48.9527 10.641 47.9011 6.83135 46.8631 3.03552C46.8085 2.85608 46.788 2.66284 46.7334 2.44199H50.8237C51.6841 6.63121 52.5513 10.8204 53.4527 15.0511ZM131.878 19.8614H124.968C125.043 21.2624 125.07 22.5944 125.214 23.9126C125.316 24.8305 125.814 25.2239 126.6 25.2308C127.419 25.2446 127.897 24.8305 128.088 23.9195C128.15 23.6227 128.191 23.326 128.218 23.0223C128.245 22.7531 128.259 22.4633 128.28 22.0768C129.447 22.1389 130.588 22.2079 131.714 22.2562C132.37 24.2232 131.189 26.7491 129.201 27.529C127.638 28.1501 126.033 28.1501 124.435 27.6739C123.254 27.3219 122.373 26.5628 121.977 25.3964C121.608 24.306 121.26 23.1672 121.185 22.0285C120.98 19.2196 120.905 16.383 121.328 13.5672C121.403 13.0979 121.533 12.6493 121.676 12.1938C122.25 10.3166 123.5 9.16406 125.432 8.97082C126.484 8.8673 127.569 8.90871 128.607 9.08815C130.287 9.38491 131.182 10.6065 131.571 12.2076C131.748 12.9599 131.878 13.7329 131.906 14.4989C131.912 16.2588 131.878 18.0049 131.878 19.8614ZM127.952 17.439C127.952 16.0518 127.965 14.7474 127.938 13.4361C127.938 13.1255 127.822 12.8012 127.706 12.5044C127.474 11.9247 126.989 11.7659 126.409 11.7659C125.828 11.7659 125.459 12.0627 125.316 12.5941C124.879 14.1884 125.022 15.8171 125.036 17.4528C126.081 17.439 127.03 17.439 127.952 17.439V17.439Z" fill="#282828"/>
<path d="M87.0551 5.80328H82.9922V2.47675H95.1196V5.78258H91.0839V27.7363H87.062L87.0551 5.80328Z" fill="#282828"/>
</svg>
